<svg width="17" height="17" viewBox="0 0 17 17" fill="none" xmlns="http://www.w3.org/2000/svg">
<path d="M10.0584 2.03638C9.18955 2.03638 8.35628 2.38153 7.7419 2.99591C7.12753 3.61028 6.78237 4.44356 6.78237 5.31242V7.13638H5.02925C4.94123 7.13638 4.86987 7.20773 4.86987 7.29575V9.70408C4.86987 9.79211 4.94123 9.86346 5.02925 9.86346H6.78237V14.8041C6.78237 14.8921 6.85373 14.9635 6.94175 14.9635H9.35008C9.4381 14.9635 9.50946 14.8921 9.50946 14.8041V9.86346H11.2781C11.3512 9.86346 11.415 9.81369 11.4327 9.74274L12.0348 7.33441C12.06 7.23382 11.9839 7.13638 11.8802 7.13638H9.50946V5.31242C9.50946 5.16683 9.56729 5.0272 9.67024 4.92425C9.77319 4.8213 9.91282 4.76346 10.0584 4.76346H11.9001C11.9881 4.76346 12.0595 4.69211 12.0595 4.60409V2.19575C12.0595 2.10773 11.9881 2.03638 11.9001 2.03638H10.0584Z" fill="#356C07"/>
</svg>
