<svg width="20" height="20" viewBox="0 0 20 20" fill="none" xmlns="http://www.w3.org/2000/svg">
<path d="M9.99935 17.5002C8.94679 16.6024 7.97117 15.6181 7.08268 14.5577C5.74935 12.9652 4.16602 10.5935 4.16602 8.3335C4.16483 5.97312 5.58622 3.84466 7.76691 2.94133C9.94759 2.038 12.4577 2.53786 14.126 4.20766C15.2231 5.29984 15.8376 6.78549 15.8327 8.3335C15.8327 10.5935 14.2494 12.9652 12.916 14.5577C12.0275 15.6181 11.0519 16.6024 9.99935 17.5002ZM9.99935 4.16683C7.69931 4.16959 5.83544 6.03345 5.83268 8.3335C5.83268 9.30516 6.27185 10.9877 8.36185 13.4885C8.87697 14.1035 9.42353 14.6915 9.99935 15.2502C10.5752 14.6922 11.1221 14.1051 11.6377 13.491C13.7268 10.9868 14.166 9.30433 14.166 8.3335C14.1633 6.03345 12.2994 4.16959 9.99935 4.16683ZM9.99935 10.8335C8.61864 10.8335 7.49935 9.71421 7.49935 8.3335C7.49935 6.95279 8.61864 5.8335 9.99935 5.8335C11.3801 5.8335 12.4994 6.95279 12.4994 8.3335C12.4994 8.99654 12.236 9.63242 11.7671 10.1013C11.2983 10.5701 10.6624 10.8335 9.99935 10.8335Z" fill="white"/>
</svg>
