<svg width="20" height="20" viewBox="0 0 20 20" fill="none" xmlns="http://www.w3.org/2000/svg">
<path d="M10.0003 17.4999C8.94777 16.6021 7.97215 15.6179 7.08366 14.5574C5.75033 12.9649 4.16699 10.5933 4.16699 8.33325C4.16581 5.97288 5.5872 3.84441 7.76788 2.94108C9.94857 2.03776 12.4587 2.53762 14.127 4.20742C15.224 5.29959 15.8386 6.78524 15.8337 8.33325C15.8337 10.5933 14.2503 12.9649 12.917 14.5574C12.0285 15.6179 11.0529 16.6021 10.0003 17.4999ZM10.0003 4.16659C7.70028 4.16934 5.83642 6.03321 5.83366 8.33325C5.83366 9.30492 6.27283 10.9874 8.36283 13.4883C8.87794 14.1033 9.4245 14.6913 10.0003 15.2499C10.5762 14.692 11.123 14.1048 11.6387 13.4908C13.7278 10.9866 14.167 9.30409 14.167 8.33325C14.1642 6.03321 12.3004 4.16934 10.0003 4.16659ZM10.0003 10.8333C8.61962 10.8333 7.50033 9.71397 7.50033 8.33325C7.50033 6.95254 8.61962 5.83325 10.0003 5.83325C11.381 5.83325 12.5003 6.95254 12.5003 8.33325C12.5003 8.99629 12.2369 9.63218 11.7681 10.101C11.2993 10.5699 10.6634 10.8333 10.0003 10.8333Z" fill="white"/>
</svg>
