<svg width="49" height="49" viewBox="0 0 49 49" fill="none" xmlns="http://www.w3.org/2000/svg">
<path d="M29.6317 28.2565L34.9459 20.3967C35.4719 19.6225 34.4743 18.781 33.7126 19.3364L27.9812 23.3757C27.7928 23.5068 27.5637 23.5776 27.3283 23.5776C27.0928 23.5776 26.8637 23.5068 26.6753 23.3757L22.4312 20.4135C21.1616 19.5384 19.3479 19.8581 18.4955 21.0867L13.1813 28.9465C12.6553 29.7207 13.6528 30.5622 14.4146 30.0068L20.146 25.9675C20.3343 25.8364 20.5634 25.7656 20.7989 25.7656C21.0343 25.7656 21.2635 25.8364 21.4518 25.9675L25.6959 28.8792C26.9655 29.8048 28.7792 29.4851 29.6317 28.2565Z" fill="#1877F2"/>
<path fill-rule="evenodd" clip-rule="evenodd" d="M24.0636 4.61841C13.2654 4.61841 4.51172 13.3721 4.51172 24.1703C4.51172 29.7152 6.82173 34.7225 10.5277 38.279V43.2208C10.5277 43.7043 10.7601 44.1582 11.1523 44.4409C11.5445 44.7236 12.0486 44.8005 12.5073 44.6476L18.0814 42.7896C19.9686 43.3955 21.9793 43.7221 24.0636 43.7221C34.8618 43.7221 43.6154 34.9685 43.6154 24.1703C43.6154 13.3721 34.8618 4.61841 24.0636 4.61841ZM7.5197 24.1703C7.5197 15.0333 14.9266 7.62639 24.0636 7.62639C33.2005 7.62639 40.6075 15.0333 40.6075 24.1703C40.6075 33.3072 33.2005 40.7142 24.0636 40.7142C22.1394 40.7142 20.295 40.3863 18.5813 39.7846C18.2665 39.6741 17.9239 39.6714 17.6075 39.7769L13.5357 41.1341V37.6226C13.5357 37.1948 13.3535 36.7872 13.0347 36.5019C9.6477 33.4705 7.5197 29.0699 7.5197 24.1703Z" fill="#1877F2"/>
</svg>
