<svg width="49" height="49" viewBox="0 0 49 49" fill="none" xmlns="http://www.w3.org/2000/svg">
<circle opacity="0.2" cx="24.0638" cy="24.1703" r="24.0638" fill="#E10000"/>
<ellipse opacity="0.7" cx="24.0636" cy="24.7169" rx="19.6886" ry="19.1417" fill="#E10000"/>
<path d="M32.3226 28.2724L29.8848 25.8346C29.0141 24.964 27.534 25.3123 27.1858 26.4441C26.9246 27.2277 26.0539 27.663 25.2703 27.4888C23.529 27.0535 21.1783 24.7898 20.743 22.9615C20.4818 22.1779 21.0042 21.3072 21.7877 21.0461C22.9196 20.6978 23.2678 19.2177 22.3972 18.347L19.9594 15.9092C19.2629 15.2998 18.2181 15.2998 17.6086 15.9092L15.9544 17.5635C14.3002 19.3048 16.1285 23.9192 20.2206 28.0112C24.3126 32.1033 28.927 34.0187 30.6683 32.2774L32.3226 30.6232C32.9321 29.9266 32.9321 28.8819 32.3226 28.2724Z" fill="white"/>
</svg>
