<svg width="37" height="36" viewBox="0 0 37 36" fill="none" xmlns="http://www.w3.org/2000/svg">
<circle opacity="0.1" cx="18.5" cy="18" r="18" fill="#356C07"/>
<path d="M14.451 11.9915C13.2923 13.1485 12.6184 14.7038 12.5666 16.3404C12.5147 17.9769 13.0889 19.5717 14.1721 20.7997C15.2553 22.0276 16.7659 22.7963 18.3962 22.9492C19.9967 23.0992 21.5943 22.6446 22.8752 21.6767L26.2064 25.0087L26.2064 25.0087C26.2892 25.0915 26.3876 25.1572 26.4958 25.2021C26.604 25.2469 26.72 25.27 26.8372 25.27C26.9543 25.27 27.0703 25.2469 27.1786 25.2021C27.2868 25.1572 27.3852 25.0915 27.468 25.0087C27.5508 24.9258 27.6165 24.8275 27.6614 24.7192C27.7062 24.611 27.7293 24.495 27.7293 24.3779C27.7293 24.2607 27.7062 24.1447 27.6614 24.0365C27.6165 23.9282 27.5508 23.8299 27.468 23.747L27.468 23.747L24.1363 20.4161C25.1015 19.1351 25.5542 17.5386 25.4033 15.9396C25.2496 14.3107 24.4811 12.8015 23.2541 11.7191C22.0272 10.6367 20.434 10.0624 18.7986 10.113C17.1633 10.1636 15.6086 10.8354 14.451 11.9915ZM14.451 11.9915L14.5216 12.0623L14.451 11.9915ZM22.289 13.2538C22.7266 13.6843 23.0746 14.1972 23.3129 14.7628C23.5513 15.3285 23.6753 15.9357 23.6778 16.5496C23.6803 17.1634 23.5612 17.7716 23.3275 18.3392C23.0937 18.9068 22.7499 19.4225 22.3159 19.8565C21.8818 20.2906 21.3661 20.6344 20.7986 20.8682C20.231 21.1019 19.6227 21.221 19.0089 21.2185C18.3951 21.216 17.7878 21.092 17.2221 20.8536C16.6565 20.6152 16.1436 20.2672 15.7131 19.8297C14.8528 18.9552 14.3729 17.7762 14.3779 16.5496C14.3829 15.3229 14.8724 14.1479 15.7398 13.2805C16.6072 12.413 17.7822 11.9235 19.0089 11.9185C20.2356 11.9135 21.4145 12.3935 22.289 13.2538Z" fill="#356C07" stroke="#356C07" stroke-width="0.2"/>
</svg>
