<svg width="15" height="16" viewBox="0 0 15 16" fill="none" xmlns="http://www.w3.org/2000/svg">
<path fill-rule="evenodd" clip-rule="evenodd" d="M1.33796 8C1.40627 8.11804 1.49683 8.26847 1.60901 8.44217C1.89715 8.88832 2.32385 9.48162 2.87784 10.0725C3.9972 11.2665 5.56219 12.375 7.5 12.375C9.43781 12.375 11.0028 11.2665 12.1222 10.0725C12.6761 9.48162 13.1029 8.88832 13.391 8.44217C13.5032 8.26847 13.5937 8.11804 13.662 8C13.5937 7.88196 13.5032 7.73153 13.391 7.55783C13.1029 7.11168 12.6761 6.51838 12.1222 5.92746C11.0028 4.73347 9.43781 3.625 7.5 3.625C5.56219 3.625 3.9972 4.73347 2.87784 5.92746C2.32385 6.51838 1.89715 7.11168 1.60901 7.55783C1.49683 7.73153 1.40627 7.88196 1.33796 8ZM14.375 8C14.934 7.72049 14.9339 7.72028 14.9338 7.72005L14.9328 7.71804L14.9306 7.71377L14.9235 7.69989C14.9176 7.6883 14.9092 7.67207 14.8983 7.65152C14.8765 7.61044 14.845 7.55202 14.8038 7.47874C14.7214 7.33228 14.6001 7.12595 14.441 6.87967C14.1237 6.38832 13.652 5.73162 13.0341 5.07254C11.8097 3.76653 9.93719 2.375 7.5 2.375C5.06281 2.375 3.1903 3.76653 1.96591 5.07254C1.34802 5.73162 0.876291 6.38832 0.55896 6.87967C0.399906 7.12595 0.27862 7.33228 0.196232 7.47874C0.155015 7.55202 0.123463 7.61044 0.101721 7.65152C0.0908479 7.67207 0.082422 7.6883 0.0764612 7.69989L0.0693687 7.71377L0.0672118 7.71804L0.0664813 7.7195C0.0663664 7.71973 0.065983 7.72049 0.625 8L0.065983 7.72049C-0.0219943 7.89645 -0.0219943 8.10355 0.065983 8.27951L0.625 8C0.065983 8.27951 0.0658682 8.27928 0.065983 8.27951L0.0672118 8.28196L0.0693687 8.28623L0.0764612 8.30011C0.082422 8.3117 0.0908479 8.32793 0.101721 8.34848C0.123463 8.38956 0.155015 8.44798 0.196232 8.52126C0.27862 8.66772 0.399906 8.87405 0.55896 9.12033C0.876291 9.61168 1.34802 10.2684 1.96591 10.9275C3.1903 12.2335 5.06281 13.625 7.5 13.625C9.93719 13.625 11.8097 12.2335 13.0341 10.9275C13.652 10.2684 14.1237 9.61168 14.441 9.12033C14.6001 8.87405 14.7214 8.66772 14.8038 8.52126C14.845 8.44798 14.8765 8.38956 14.8983 8.34848C14.9092 8.32793 14.9176 8.3117 14.9235 8.30011L14.9306 8.28623L14.9328 8.28196L14.9335 8.2805C14.9336 8.28027 14.934 8.27951 14.375 8ZM14.375 8L14.934 8.27951C15.022 8.10355 15.0218 7.89601 14.9338 7.72005L14.375 8Z" fill="#4F4F4F"/>
<path fill-rule="evenodd" clip-rule="evenodd" d="M7.5 6.75C6.80964 6.75 6.25 7.30964 6.25 8C6.25 8.69036 6.80964 9.25 7.5 9.25C8.19036 9.25 8.75 8.69036 8.75 8C8.75 7.30964 8.19036 6.75 7.5 6.75ZM5 8C5 6.61929 6.11929 5.5 7.5 5.5C8.88071 5.5 10 6.61929 10 8C10 9.38071 8.88071 10.5 7.5 10.5C6.11929 10.5 5 9.38071 5 8Z" fill="#4F4F4F"/>
</svg>
