<svg width="15" height="13" viewBox="0 0 15 13" fill="none" xmlns="http://www.w3.org/2000/svg">
<path d="M14.4485 2.41088C14.4895 2.35367 14.4289 2.2798 14.3632 2.30524C13.8966 2.4861 13.409 2.60813 12.9116 2.66826C13.4654 2.33738 13.8928 1.8337 14.1298 1.23738C14.1539 1.17663 14.0876 1.12238 14.0304 1.15399C13.5156 1.43827 12.9605 1.64297 12.3838 1.76087C12.3596 1.7658 12.3348 1.75758 12.3178 1.7397C11.885 1.28306 11.3154 0.979013 10.6943 0.873947C10.0603 0.766673 9.40853 0.872889 8.84133 1.17594C8.27413 1.47898 7.82356 1.96172 7.56028 2.54844C7.30995 3.10629 7.2424 3.72814 7.36587 4.32536C7.37545 4.3717 7.33917 4.41545 7.29195 4.41251C6.16991 4.34282 5.07362 4.04438 4.07061 3.53516C3.07015 3.02724 2.18422 2.32063 1.46677 1.45892C1.43493 1.42068 1.37458 1.42563 1.35138 1.46965C1.12813 1.89328 1.01125 2.36545 1.01156 2.84534C1.01066 3.32303 1.12788 3.79353 1.35281 4.21495C1.57773 4.63637 1.90337 4.99564 2.30073 5.26076C1.87933 5.24929 1.46614 5.14511 1.09037 4.95623C1.04194 4.93189 0.98385 4.96655 0.986369 5.02069C1.01567 5.65056 1.24691 6.28291 1.64716 6.76807C2.0731 7.28435 2.66429 7.63767 3.32073 7.76826C3.06804 7.84516 2.80568 7.88571 2.54156 7.88868C2.39781 7.887 2.25435 7.87639 2.11199 7.85693C2.0592 7.84971 2.0161 7.89985 2.03458 7.94982C2.23037 8.47929 2.57627 8.94129 3.03108 9.27854C3.51731 9.63909 4.10385 9.83911 4.70906 9.85076C3.68708 10.6549 2.42532 11.0938 1.1249 11.0974C0.991275 11.0979 0.857712 11.0935 0.724464 11.0845C0.649375 11.0793 0.61484 11.1794 0.679564 11.2178C1.94661 11.9697 3.39481 12.3671 4.87198 12.3653C5.9626 12.3767 7.04454 12.1706 8.0546 11.7591C9.06467 11.3476 9.98262 10.7389 10.7548 9.96869C11.527 9.19846 12.138 8.28208 12.5521 7.27307C12.9662 6.26406 13.1751 5.18265 13.1666 4.09201V3.75213C13.1666 3.72977 13.1771 3.70874 13.195 3.69526C13.6754 3.33249 14.098 2.89939 14.4485 2.41088Z" fill="#356C07"/>
</svg>
